<svg version="1.2" baseProfile="tiny-ps" xmlns="http://www.w3.org/2000/svg" viewBox="0 0 1521 922" width="1521" height="922"><title>Caterpillar_logo-svg</title><style>tspan { white-space:pre }.shp0 { fill: #ffc400 } .shp1 { fill: #000000 } </style><g id="layer1"><g id="g2418"><path id="polygon2406" class="shp0" d="M1264.12 921.12L805.03 536.35L329.33 921.12L1264.12 921.12L1264.12 921.12Z" /><path id="path2386" fill-rule="evenodd" class="shp1" d="M248.4 920.86L189.95 920.86C83.48 920.86 0.22 841.53 0.22 736.65L0.22 194.05C0.22 88.24 65.57 0.76 238.48 0.76C406.88 0.97 476.02 88.03 476.02 193.84L476.02 385.37L287.54 385.37L287.54 200.75C287.54 174.53 266.31 153.24 240.09 153.24C213.88 153.24 194.36 174.53 194.36 200.75L194.36 720.4C194.36 746.67 213.88 767.96 240.09 767.96C266.31 767.96 287.54 746.67 287.54 720.4L287.54 536.97L476.28 536.97L476.28 672.17C476.28 704.36 470.31 740.24 435.59 769.21L248.4 920.86ZM1179.66 194.21L1049.37 194.21L1049.37 18.57L1520.81 18.57L1520.81 194.21L1389.89 194.21L1389.89 919.77L1334.04 919.77L1179.66 790.49L1179.66 194.21ZM1102.57 726.01L805.13 476.7L519.84 707.06L673.02 19.5L936 19.5L1102.57 726.01ZM855.64 432.67L805.08 172.87L754.26 432.67L855.64 432.67Z" /></g></g></svg>