<?xml version="1.0" encoding="UTF-8"?><svg id="Layer_2" xmlns="http://www.w3.org/2000/svg" viewBox="0 0 1420.53 230.5"><path d="m316.19,0s-.03,44.79,0,44.79c5.09,0,9.3,4.12,9.3,9.21,0,1.36-.31,2.65-.85,3.81l-17.29,31.14-16.95-30.5s-1.16-2.83-1.16-4.45c0-5.04,4.06-9.13,9.09-9.2V0S216.78,0,216.78,0v44.66c7.96,0,14.81,4.7,17.97,11.46l35.82,75.01-.06-.03v36.19c0,10.41-8.44,18.85-18.85,18.85-.04,0-.08,0-.12,0l.12,44.36h98.1v-44.36h0c-10.35-.07-18.73-8.48-18.73-18.85v-36.19l37.92-74.98c3.16-6.77,10.01-11.46,17.97-11.46V0h-70.73Z"/><path d="m516,164.89c0,11.74-9.52,21.26-21.26,21.26h-6.89V44.66h6.89c11.74,0,21.26,9.52,21.26,21.26v98.96Zm70.77-27.46v-46.41h-.05C585.67,40.57,546.32,0,497.9,0c-.04,0-.08,0-.12,0h0S408.91,0,408.91,0v44.66s0,0,0,0c9.56,0,17.19,7.35,17.31,17.31v106.85c0,9.56-7.75,17.31-17.31,17.31h0v44.36h88.87s.08,0,.12,0c49.08,0,88.87-41.67,88.87-93.07"/><path d="m704.07,78.23c0,7.04-4.44,12.76-9.92,12.76h-17.81v-46.23h17.81c5.48,0,9.92,5.71,9.92,12.76v20.72Zm81.39,151.99v-44.1c-6.44,0-12.43-3.36-13.83-9.85-9.57-53.3-19.8-58.88-34.46-66.12,20.83-9.55,38.01-22.75,38.01-50.72,0-43.48-31.42-58.29-81.03-59.28v-.06h-99.71v44.67c9.92.07,17.94,8.12,17.94,18.06v105.36c0,9.98-8.09,18.06-18.06,18.06-.04,0-.08,0-.12,0h0v44.17l100.21.09v-44.26c-9.98,0-18.06-8.09-18.06-18.06h0v-36.92h8.54c16.08,0,14.58,8.08,24.53,54.88.42,2.79,9.18,44.09,51.59,44.36h24.47v-.28Z"/><path d="m1226.43,44.79V0h-103.95l-17.47,78.24L1087.55.26v-.26h-98.27v44.79c9.47.07,17.14,7.7,17.27,17.15h.01v106.79c0,9.61-7.79,17.41-17.41,17.41v44.36h78.59v-44.36c-9.61,0-17.41-7.79-17.41-17.41v-76.56l37.21,138.32h23.3l37.23-139.8v78.04h-.12c0,9.54-7.67,17.27-17.18,17.4l.13,17.96v26.41h95.53v-44.36c-9.61,0-17.41-7.79-17.41-17.41V62.2c0-9.61,7.79-17.41,17.41-17.41"/><path d="m1339.12,130.85h-23.3l13.1-64.4,10.2,64.4Zm81.41,99.65v-44.36h0c-7.79,0-15.43-5.86-16.6-12.17L1376.33.13h-75.68l-35.28,173.95c-1.42,6.66-8.82,12.07-16.57,12.07h0v44.36h68.72v-44.36c-5.81-.07-10.78-4.8-10.5-10.62.1-2.18,2.47-13.48,2.47-13.48h34.58s1.88,11.14,1.92,13.48c.1,5.87-4.76,10.63-10.63,10.63l.12,44.36h85.05Z"/><path d="m925.81,139.74v29.06h0c-.03,9.55-7.78,17.29-17.34,17.29-.08,0-24.51.06-24.51.06v-56.74c.1,0,.19-.02.28-.02,5.48,0,9.95,4.26,10.31,9.65v11.7h18.85v-70.87h-18.85v11.58c-.36,5.39-4.83,9.65-10.31,9.65-.1,0-.19-.01-.28-.01v-56.68h24.33c9.55.04,17.28,7.79,17.28,17.35,0,.1-.01.21-.02.31h.02v28.7h41.36V0h-161.86v44.66c9.58,0,17.35,7.77,17.35,17.35v106.79c0,9.58-7.77,17.35-17.35,17.35h0v44.36h162.11v-90.77h-41.36Z"/><path d="m194.77,230.5l-.09-44.36c-10.31-.12-17.99-8.52-17.99-18.12V62.78h0c0-9.92,7.98-17.97,17.87-18.11h0V0h-88.28v44.79c4.77,0,8.64,3.64,9.11,8.28v37.82h-36.32v-36.99c.03-5.11,4.18-9.24,9.29-9.24V0H.06l-.06,44.67c9.94.07,17.98,8.15,17.98,18.11v105.25c0,8.92-7.47,17.86-17.98,17.98l.06,44.48h88.28v-44.36c-5.11,0-9.26-4.13-9.29-9.24v-45.93h36.32v45.87h0s0,.04,0,.06c0,4.91-3.44,9.12-8.99,9.24l-.06,44.36h88.44Z"/></svg>